# File created by Blade
# Date/Time:  Wed Sep 24 20:15:16 2014
# Frame Rate: 120.000 fps
#------------------------------------------------------
:FULLY-SPECIFIED
:DEGREES
3524
root -5.815584 32.733091 -4.580646 16.515355 -4.780442 -2.935426
Spine -22.710611 -4.800705 6.221372
Head 3.737781 -7.762292 8.429358
LeftShoulder -5.206836 20.542159 11.182226
LeftArm 18.992489 27.220801 -76.388700
LeftForeArm -4.295662 -0.000000 18.742508
LeftHand -22.251416 -0.000000 -5.057866
LeftHandThumb1 -26.253704 0.000000 33.147579
RightShoulder -23.504774 11.953096 -13.040432
RightArm -45.057261 57.263841 48.705207
RightForeArm 46.599563 -0.000000 120.939249
RightHand -7.925151 -0.000000 -52.512682
RightHandThumb1 -24.326973 -0.000000 -32.862282
LeftUpLeg -11.231667 11.515792 3.359029
LeftLeg 0.686239 -0.000000 -0.000000
LeftFoot -14.879084 9.679903 -18.266740
LeftToeBase 9.472560 -0.000000 -0.000000
RightUpLeg -14.396424 -2.202411 -1.807811
RightLeg 3.734480 -0.000000 -0.000000
RightFoot -9.160514 0.427951 -12.498105
RightToeBase -0.813925 -0.000000 0.000000
3525
root -5.811520 32.732495 -4.576969 16.518069 -5.129543 -2.955189
Spine -22.743221 -4.748654 6.260527
Head 4.182996 -7.353689 8.244481
LeftShoulder -5.219251 20.558420 11.160653
LeftArm 19.028616 27.254467 -76.299557
LeftForeArm -4.322560 -0.000000 18.690448
LeftHand -22.243648 -0.000000 -5.234505
LeftHandThumb1 -26.253704 0.000000 33.147579
RightShoulder -23.553825 11.974235 -13.072965
RightArm -44.898310 57.193227 48.872269
RightForeArm 46.768865 -0.000000 121.200789
RightHand -7.873519 -0.000000 -53.061233
RightHandThumb1 -24.326973 -0.000000 -32.862282
LeftUpLeg -11.190290 11.627777 3.326175
LeftLeg 0.750541 -0.000000 -0.000000
LeftFoot -15.013389 9.863149 -18.326034
LeftToeBase 9.448205 -0.000000 -0.000000
RightUpLeg -14.440930 -2.112739 -1.841043
RightLeg 3.734907 -0.000000 -0.000000
RightFoot -9.173411 0.683783 -12.493110
RightToeBase -0.869727 -0.000000 0.000000
3526
root -5.809638 32.732107 -4.570965 16.507937 -5.468558 -2.977862
Spine -22.761728 -4.711908 6.282577
Head 4.618858 -6.939689 8.115748
LeftShoulder -5.242619 20.522628 11.140417
LeftArm 18.984703 27.266832 -76.239531
LeftForeArm -4.313614 -0.000000 18.708782
LeftHand -22.283604 -0.000000 -5.197944
LeftHandThumb1 -26.253704 0.000000 33.147579
RightShoulder -23.566298 12.013910 -13.070583
RightArm -44.785552 57.136505 48.980273
RightForeArm 46.755939 -0.000000 121.389285
RightHand -8.014861 -0.000000 -53.484893
RightHandThumb1 -24.326973 -0.000000 -32.862282
LeftUpLeg -11.116138 11.709666 3.310115
LeftLeg 0.781786 -0.000000 -0.000000
LeftFoot -15.139530 10.069929 -18.356020
LeftToeBase 9.464255 -0.000000 -0.000000
RightUpLeg -14.458329 -2.084320 -1.848382
RightLeg 3.713704 -0.000000 -0.000000
RightFoot -9.196693 0.968693 -12.571208
RightToeBase -0.936371 -0.000000 0.000000
3527
root -5.807812 32.731728 -4.565466 16.502789 -5.762042 -3.002362
Spine -22.788735 -4.676019 6.313456
Head 4.998370 -6.605402 7.951314
LeftShoulder -5.242273 20.497460 11.117246
LeftArm 18.956961 27.254451 -76.185576
LeftForeArm -4.146239 -0.000000 18.737103
LeftHand -22.308204 -0.000000 -5.196413
LeftHandThumb1 -26.253704 0.000000 33.147579
RightShoulder -23.570881 12.049664 -13.086076
RightArm -44.800312 57.144137 48.958038
RightForeArm 46.755296 -0.000000 121.465064
RightHand -8.128532 -0.000000 -53.552008
RightHandThumb1 -24.326973 -0.000000 -32.862282
LeftUpLeg -11.064909 11.733654 3.314635
LeftLeg 0.841153 -0.000000 -0.000000
LeftFoot -15.283388 10.216219 -18.650080
LeftToeBase 9.447230 -0.000000 -0.000000
RightUpLeg -14.476302 -2.080019 -1.844340
RightLeg 3.698816 -0.000000 -0.000000
RightFoot -9.223094 1.222321 -12.604692
RightToeBase -0.928291 -0.000000 0.000000
3528
root -5.802811 32.731612 -4.562135 16.511190 -6.071288 -3.010786
Spine -22.829029 -4.597559 6.306893
Head 5.390362 -6.376871 7.789265
LeftShoulder -5.274178 20.539237 11.092080
LeftArm 19.064125 27.220351 -76.085072
LeftForeArm -4.238565 -0.000000 18.738779
LeftHand -22.109660 0.000000 -5.199847
LeftHandThumb1 -26.253704 0.000000 33.147579
RightShoulder -23.605833 12.066120 -13.088686
RightArm -44.622972 57.065236 49.145541
RightForeArm 46.579784 0.000000 121.505281
RightHand -8.176800 0.000000 -53.949876
RightHandThumb1 -24.326973 -0.000000 -32.862282
LeftUpLeg -11.031251 11.779026 3.277444
LeftLeg 0.891608 -0.000000 -0.000000
LeftFoot -15.415747 10.492088 -18.510843
LeftToeBase 9.510933 -0.000000 -0.000000
RightUpLeg -14.510504 -2.060039 -1.869550
RightLeg 3.670683 -0.000000 -0.000000
RightFoot -9.238552 1.491830 -12.663616
RightToeBase -0.957729 -0.000000 0.000000
3529
root -5.801628 32.731402 -4.556903 16.504547 -6.359002 -3.033133
Spine -22.848884 -4.517158 6.305310
Head 5.765031 -6.185695 7.602987
LeftShoulder -5.292343 20.555041 11.074381
LeftArm 19.127848 27.197968 -75.985601
LeftForeArm -4.195636 -0.000000 18.793505
LeftHand -21.947892 -0.000000 -4.966484
LeftHandThumb1 -26.253704 0.000000 33.147579
RightShoulder -23.630605 12.088421 -13.112202
RightArm -44.589740 57.005966 49.217168
RightForeArm 46.644046 -0.000000 121.488503
RightHand -8.153895 -0.000000 -54.371616
RightHandThumb1 -24.326973 -0.000000 -32.862282
LeftUpLeg -10.970625 11.861471 3.267434
LeftLeg 0.922994 -0.000000 -0.000000
LeftFoot -15.521127 10.591240 -18.772537
LeftToeBase 9.440455 -0.000000 -0.000000
RightUpLeg -14.507124 -2.016708 -1.876832
RightLeg 3.613981 -0.000000 -0.000000
RightFoot -9.215328 1.707760 -12.710189
RightToeBase -1.050963 -0.000000 0.000000
3530
root -5.799502 32.730968 -4.550953 16.496092 -6.601925 -3.057020
Spine -22.863537 -4.459798 6.316978
Head 6.106386 -5.998996 7.398940
LeftShoulder -5.340494 20.601612 11.044438
LeftArm 19.252374 27.153809 -75.887697
LeftForeArm -4.126715 -0.000000 18.874304
LeftHand -22.084248 -0.000000 -5.078769
LeftHandThumb1 -26.253704 0.000000 33.147579
RightShoulder -23.639304 12.117848 -13.117303
RightArm -44.567842 56.943703 49.234166
RightForeArm 46.330325 -0.000000 121.352922
RightHand -8.325165 -0.000000 -54.588220
RightHandThumb1 -24.326973 -0.000000 -32.862282
LeftUpLeg -10.903799 11.895039 3.267639
LeftLeg 0.929002 -0.000000 -0.000000
LeftFoot -15.630743 10.768387 -18.847279
LeftToeBase 9.491737 -0.000000 -0.000000
RightUpLeg -14.491946 -1.991504 -1.880905
RightLeg 3.554328 -0.000000 -0.000000
RightFoot -9.209115 1.926707 -12.714211
RightToeBase -1.099813 -0.000000 0.000000
3531
root -5.797324 32.730718 -4.546872 16.501389 -6.831011 -3.079401
Spine -22.884261 -4.421605 6.324075
Head 6.394709 -5.825215 7.235126
LeftShoulder -5.394117 20.602535 11.024786
LeftArm 19.306595 27.047913 -75.844574
LeftForeArm -4.097547 -0.000000 18.959199
LeftHand -21.996996 -0.000000 -4.836291
LeftHandThumb1 -26.253704 0.000000 33.147579
RightShoulder -23.661698 12.105500 -13.069141
RightArm -44.324214 56.896005 49.424258
RightForeArm 46.032913 -0.000000 121.200733
RightHand -8.364637 0.000000 -54.955486
RightHandThumb1 -24.326973 -0.000000 -32.862282
LeftUpLeg -10.847107 11.920216 3.262195
LeftLeg 0.915038 -0.000000 -0.000000
LeftFoot -15.705390 10.991685 -18.693221
LeftToeBase 9.525579 -0.000000 -0.000000
RightUpLeg -14.488998 -1.968151 -1.883167
RightLeg 3.486117 -0.000000 -0.000000
RightFoot -9.203786 2.139952 -12.716411
RightToeBase -1.060831 -0.000000 0.000000
3532
root -5.794643 32.730345 -4.541543 16.499762 -7.041645 -3.098684
Spine -22.906222 -4.394141 6.336986
Head 6.689948 -5.712174 7.059448
LeftShoulder -5.428640 20.616686 10.999824
LeftArm 19.303475 26.827329 -75.865427
LeftForeArm -3.883381 -0.000000 19.153967
LeftHand -22.151071 -0.000000 -4.712599
LeftHandThumb1 -26.253704 0.000000 33.147579
RightShoulder -23.661121 12.076669 -13.053683
RightArm -44.186383 56.898369 49.559457
RightForeArm 46.246103 -0.000000 121.035077
RightHand -8.380922 -0.000000 -55.006575
RightHandThumb1 -24.326973 -0.000000 -32.862282
LeftUpLeg -10.778532 12.001230 3.246159
LeftLeg 0.879167 -0.000000 -0.000000
LeftFoot -15.745311 11.113847 -18.691386
LeftToeBase 9.517419 -0.000000 -0.000000
RightUpLeg -14.469167 -1.925703 -1.890648
RightLeg 3.409896 -0.000000 -0.000000
RightFoot -9.189503 2.288101 -12.735195
RightToeBase -1.073863 -0.000000 0.000000
3533
root -5.793648 32.730137 -4.538677 16.511809 -7.221226 -3.121587
Spine -22.932289 -4.386491 6.343419
Head 6.938912 -5.602615 6.950345
LeftShoulder -5.464548 20.601523 10.997393
LeftArm 19.320793 26.757260 -75.843819
LeftForeArm -3.690542 -0.000000 19.311959
LeftHand -22.165135 0.000000 -4.600423
LeftHandThumb1 -26.253704 0.000000 33.147579
RightShoulder -23.655041 12.078830 -13.037658
RightArm -44.130204 56.900875 49.597579
RightForeArm 46.441330 -0.000000 120.814564
RightHand -8.476981 0.000000 -55.345547
RightHandThumb1 -24.326973 -0.000000 -32.862282
LeftUpLeg -10.730206 12.039739 3.246563
LeftLeg 0.834209 -0.000000 -0.000000
LeftFoot -15.779711 11.207540 -18.891751
LeftToeBase 9.419559 -0.000000 -0.000000
RightUpLeg -14.470662 -1.874186 -1.894256
RightLeg 3.350883 -0.000000 -0.000000
RightFoot -9.158629 2.420454 -12.757268
RightToeBase -1.152226 -0.000000 0.000000
3534
root -5.791794 32.729854 -4.536388 16.518063 -7.367208 -3.133469
Spine -22.948065 -4.390330 6.350154
Head 7.161234 -5.473183 6.804572
LeftShoulder -5.501504 20.619030 10.973907
LeftArm 19.375672 26.596738 -75.801420
LeftForeArm -3.812308 -0.000000 19.500792
LeftHand -22.043870 -0.000000 -4.366440
LeftHandThumb1 -26.253704 0.000000 33.147579
RightShoulder -23.667184 12.117828 -13.046742
RightArm -44.101496 56.863596 49.638664
RightForeArm 46.700221 -0.000000 120.637510
RightHand -8.470342 -0.000000 -55.478688
RightHandThumb1 -24.326973 -0.000000 -32.862282
LeftUpLeg -10.688731 12.098101 3.232649
LeftLeg 0.800465 -0.000000 -0.000000
LeftFoot -15.800919 11.280833 -18.905601
LeftToeBase 9.406348 -0.000000 -0.000000
RightUpLeg -14.464343 -1.828755 -1.906554
RightLeg 3.291753 -0.000000 -0.000000
RightFoot -9.140484 2.524084 -12.753376
RightToeBase -1.179330 -0.000000 0.000000
3535
root -5.790330 32.729375 -4.534011 16.527796 -7.486565 -3.148094
Spine -22.965063 -4.400445 6.363827
Head 7.374161 -5.340303 6.677791
LeftShoulder -5.538145 20.637203 10.960468
LeftArm 19.407718 26.384119 -75.817488
LeftForeArm -3.599328 -0.000000 19.738913
LeftHand -22.082566 -0.000000 -4.605234
LeftHandThumb1 -26.253704 0.000000 33.147579
RightShoulder -23.700460 12.144641 -13.066700
RightArm -44.099774 56.858021 49.672332
RightForeArm 47.077002 -0.000000 120.495489
RightHand -8.550939 -0.000000 -55.436400
RightHandThumb1 -24.326973 -0.000000 -32.862282
LeftUpLeg -10.654047 12.161783 3.220099
LeftLeg 0.764793 -0.000000 -0.000000
LeftFoot -15.824840 11.376233 -18.748372
LeftToeBase 9.468961 -0.000000 -0.000000
RightUpLeg -14.449661 -1.767485 -1.921069
RightLeg 3.217102 -0.000000 -0.000000
RightFoot -9.110519 2.623147 -12.695658
RightToeBase -1.200053 -0.000000 0.000000
